<?xml version="1.0" encoding="UTF-8" standalone="no"?><!DOCTYPE svg PUBLIC "-//W3C//DTD SVG 1.1//EN" "http://www.w3.org/Graphics/SVG/1.1/DTD/svg11.dtd"><svg width="100%" height="100%" viewBox="0 0 1569 401" version="1.1" xmlns="http://www.w3.org/2000/svg" xmlns:xlink="http://www.w3.org/1999/xlink" xml:space="preserve" xmlns:serif="http://www.serif.com/" style="fill-rule:evenodd;clip-rule:evenodd;stroke-linejoin:round;stroke-miterlimit:1.41421;"><g><path d="M247.024,14.314l0,286.281l-82.342,42.942l-82.34,-100.198l0,143.141l-27.447,14.313l-54.894,-28.628l0,-257.653l54.894,28.628l27.447,-14.314l109.787,143.141l0,-257.653l27.448,14.314l27.447,-14.314Z" style="fill:#ffc213;fill-rule:nonzero;"/><path d="M0,114.512l82.342,-42.942l109.788,143.141l0,57.256l-109.788,-143.141l-27.447,14.314l-54.895,-28.628Z" style="fill:#fce36c;fill-rule:nonzero;"/><path d="M192.13,14.314l27.447,-14.314l27.448,14.314l-27.448,14.314l-27.447,-14.314Z" style="fill:#fce36c;fill-rule:nonzero;"/><path d="M418.554,276.092l-42.265,0l-49.197,-122.768c1.789,13.865 4.474,33.991 4.474,62.615l0,60.153l-29.742,0l0,-154.746l41.369,0l50.091,122.992c-1.565,-10.51 -4.472,-31.977 -4.472,-55.011l0,-67.981l29.742,0l0,154.746Z" style="fill:#2c2d2c;fill-rule:nonzero;"/><path d="M561.221,225.106c0,31.083 -19.903,54.563 -59.036,54.563c-39.135,0 -58.814,-22.361 -58.814,-54.563l0,-103.76l32.873,0l0,102.196c0,20.796 8.051,31.084 25.941,31.084c18.112,0 26.163,-10.288 26.163,-31.084l0,-102.196l32.873,0l0,103.761Z" style="fill:#2c2d2c;fill-rule:nonzero;"/><path d="M650.89,217.057l-18.113,-71.335l-17.891,71.335l36.004,0Zm6.261,24.374l-48.527,0l-8.72,34.661l-34.214,0l47.631,-154.746l40.028,0l47.408,154.746l-34.886,0l-8.72,-34.661Z" style="fill:#2c2d2c;fill-rule:nonzero;"/><path d="M742.349,145.498l0,106.444l13.417,0c22.586,0 39.804,-10.511 39.804,-53.893c0,-44.277 -18.113,-52.551 -40.475,-52.551l-12.746,0Zm87.436,52.551c0,62.39 -38.016,78.043 -76.032,78.043l-44.276,0l0,-154.746l40.476,0c40.921,0 79.832,12.747 79.832,76.703" style="fill:#2c2d2c;fill-rule:nonzero;"/><rect x="849.236" y="121.345" width="32.871" height="154.746" style="fill:#2c2d2c;"/><path d="M993.69,137.448l-4.919,5.366c-11.182,-10.063 -21.244,-14.312 -36.227,-14.312c-21.244,0 -34.662,11.629 -34.662,28.623c0,17.667 9.84,25.27 37.121,33.544c29.742,8.945 43.383,19.007 43.383,44.278c0,25.939 -19.678,43.381 -47.854,43.381c-20.127,0 -34.215,-7.379 -46.738,-18.56l4.92,-5.367c11.181,10.062 23.033,16.771 41.594,16.771c23.927,0 40.251,-13.864 40.251,-35.779c0,-21.243 -10.286,-29.294 -38.463,-38.015c-30.859,-9.616 -42.263,-19.679 -42.263,-40.253c0,-20.348 16.771,-36.002 42.488,-36.002c19.008,0 30.188,6.261 41.369,16.325" style="fill:#2c2d2c;fill-rule:nonzero;"/><path d="M1105.27,130.961l-46.289,0l0,145.13l-7.827,0l0,-145.13l-46.29,0l0,-7.378l101.748,0l-1.342,7.378Z" style="fill:#2c2d2c;fill-rule:nonzero;"/><path d="M1223.12,229.355c0,28.624 -14.759,48.974 -47.632,48.974c-33.319,0 -47.855,-20.35 -47.855,-48.974l0,-105.771l7.827,0l0,105.1c0,25.27 11.628,42.488 40.028,42.488c28.4,0 39.58,-17.665 39.58,-42.488l0,-105.1l8.052,0l0,105.771Z" style="fill:#2c2d2c;fill-rule:nonzero;"/><path d="M1276.11,130.739l0,138.198l22.362,0c28.177,0 57.918,-12.747 57.918,-70.664c0,-59.037 -30.86,-67.534 -59.483,-67.534l-20.797,0Zm88.555,67.534c0,64.178 -36.228,77.819 -66.416,77.819l-29.966,0l0,-152.509l29.072,0c33.095,0 67.31,12.299 67.31,74.69" style="fill:#2c2d2c;fill-rule:nonzero;"/><rect x="1402.01" y="123.582" width="7.826" height="152.509" style="fill:#2c2d2c;"/><path d="M1455.45,200.285c0,46.737 21.69,70.887 52.551,70.887c32.648,0 52.551,-24.15 52.551,-71.111c0,-48.078 -21.02,-71.559 -52.551,-71.559c-31.083,0 -52.551,23.928 -52.551,71.783m113.152,-0.224c0,49.644 -23.256,78.267 -60.601,78.267c-36.003,0 -60.602,-27.728 -60.602,-78.043c0,-50.538 24.822,-79.162 60.602,-79.162c36.226,0 60.601,27.282 60.601,78.938" style="fill:#2c2d2c;fill-rule:nonzero;"/></g></svg>